<svg xmlns="http://www.w3.org/2000/svg" width="529.46" height="208.094" viewBox="0 0 529.46 208.094">
  <g id="Grupo_38" data-name="Grupo 38" transform="translate(-694.583 394.831)">
    <g id="Grupo_36" data-name="Grupo 36">
      <g id="SIPA" style="isolation: isolate">
        <g id="Grupo_35" data-name="Grupo 35" style="isolation: isolate">
          <path id="Trazado_336" data-name="Trazado 336" d="M944.745-297.675q0-6.681-4.717-10.259t-16.98-7.547A120.31,120.31,0,0,1,903.63-323.3q-19.5-10.533-19.5-28.379a27.643,27.643,0,0,1,5.228-16.549q5.227-7.269,15.015-11.359a56.521,56.521,0,0,1,21.973-4.088,51.473,51.473,0,0,1,21.854,4.441,34.812,34.812,0,0,1,14.9,12.54,32.806,32.806,0,0,1,5.306,18.395H944.824q0-7.86-4.953-12.225t-13.914-4.362q-8.649,0-13.443,3.655a11.529,11.529,0,0,0-4.8,9.63q0,5.583,5.621,9.356t16.548,7.074q20.124,6.056,29.323,15.016a29.9,29.9,0,0,1,9.2,22.326q0,14.857-11.242,23.308T926.9-266.072a58.45,58.45,0,0,1-24.056-4.835Q892-275.742,886.3-284.154a33.917,33.917,0,0,1-5.7-19.5h23.662q0,18.946,22.641,18.947,8.41,0,13.128-3.42A11.127,11.127,0,0,0,944.745-297.675Z" fill="#fff"/>
          <path id="Trazado_337" data-name="Trazado 337" d="M1009.444-267.645H985.86V-382.106h23.584Z" fill="#fff"/>
          <path id="Trazado_338" data-name="Trazado 338" d="M1054.883-307.973v40.328H1031.3V-382.106h44.652a51.669,51.669,0,0,1,22.68,4.717,34.772,34.772,0,0,1,15.055,13.4,37.389,37.389,0,0,1,5.266,19.772q0,16.824-11.516,26.532t-31.878,9.709Zm0-19.1h21.068q9.355,0,14.269-4.4t4.913-12.578q0-8.41-4.953-13.6T1076.5-363h-21.618Z" fill="#fff"/>
          <path id="Trazado_339" data-name="Trazado 339" d="M1185.773-291.229h-41.35l-7.861,23.584h-25.078l42.609-114.461h21.854l42.844,114.461h-25.077Zm-34.982-19.1h28.615l-14.386-42.844Z" fill="#fff"/>
        </g>
      </g>
      <g id="Grupo_10" data-name="Grupo 10">
        <path id="Trazado_332" data-name="Trazado 332" d="M772.728-379.761a14.559,14.559,0,0,0-10.36-4.291,14.56,14.56,0,0,0-10.359,4.291l-22.924,22.923a14.562,14.562,0,0,0-4.291,10.36,14.557,14.557,0,0,0,4.291,10.359l33.283,33.283,4.879-4.879a4.868,4.868,0,0,0,5.206-1.094,4.87,4.87,0,0,0,0-6.887,4.871,4.871,0,0,0-6.887,0,4.871,4.871,0,0,0-1.094,5.206l-2.1,2.1L731.865-338.9a10.658,10.658,0,0,1-3.141-7.584,10.658,10.658,0,0,1,3.141-7.584l22.923-22.924a10.66,10.66,0,0,1,7.584-3.141,10.656,10.656,0,0,1,7.584,3.141l30.507,30.508-2.451,2.452a4.42,4.42,0,0,0-4.546,1.06,4.429,4.429,0,0,0,0,6.261,4.429,4.429,0,0,0,6.261,0,4.42,4.42,0,0,0,1.06-4.546l5.227-5.226Z" fill="#fff"/>
        <path id="Trazado_333" data-name="Trazado 333" d="M756.139-272.328a14.6,14.6,0,0,0,10.359,4.284,14.606,14.606,0,0,0,10.36-4.284l22.924-22.924a14.666,14.666,0,0,0,0-20.719L766.5-349.254l-5.226,5.226a4.425,4.425,0,0,0-4.546,1.06,4.429,4.429,0,0,0,0,6.261,4.427,4.427,0,0,0,6.261,0,4.421,4.421,0,0,0,1.06-4.546L766.5-343.7,797.007-313.2a10.737,10.737,0,0,1,0,15.168l-22.924,22.923a10.737,10.737,0,0,1-15.168,0l-30.508-30.509,2.451-2.451a4.424,4.424,0,0,0,4.546-1.06,4.427,4.427,0,0,0,0-6.261,4.429,4.429,0,0,0-6.261,0,4.427,4.427,0,0,0-1.06,4.546l-5.226,5.226Z" fill="#fff"/>
        <path id="Trazado_334" data-name="Trazado 334" d="M818-326.84a3.439,3.439,0,0,0-2.827-1.481,3.444,3.444,0,0,0-3.444,3.444v0a3.444,3.444,0,0,0,3.444,3.444A3.436,3.436,0,0,0,818-322.91h13.314a66.1,66.1,0,0,1-66,64.066A65.87,65.87,0,0,1,701.2-309.019a1.963,1.963,0,0,0-2.375-1.436,1.964,1.964,0,0,0-1.436,2.375,70.3,70.3,0,0,0,24.465,38.026,69.686,69.686,0,0,0,20.048,11.12,69.761,69.761,0,0,0,23.412,4.014,69.5,69.5,0,0,0,49.464-20.493,69.5,69.5,0,0,0,20.489-49.46v-1.963Z" fill="#fff"/>
        <path id="Trazado_335" data-name="Trazado 335" d="M714.68-321.434a3.442,3.442,0,0,0,3.443-3.443,3.445,3.445,0,0,0-3.443-3.444,3.441,3.441,0,0,0-2.827,1.481H698.538a66.106,66.106,0,0,1,66-64.066,65.868,65.868,0,0,1,64.113,50.175,1.963,1.963,0,0,0,2.375,1.436,1.962,1.962,0,0,0,1.436-2.375A70.293,70.293,0,0,0,808-379.7a69.683,69.683,0,0,0-20.048-11.12,69.774,69.774,0,0,0-23.411-4.014,69.5,69.5,0,0,0-49.465,20.489,69.5,69.5,0,0,0-20.49,49.465v1.962h17.269A3.434,3.434,0,0,0,714.68-321.434Z" fill="#fff"/>
      </g>
    </g>
    <g id="Sistema_Integral_de_Personal_Académico" data-name="Sistema Integral de Personal Académico" style="isolation: isolate">
      <g id="Grupo_37" data-name="Grupo 37" style="isolation: isolate">
        <path id="Trazado_340" data-name="Trazado 340" d="M709.315-198.294a3.458,3.458,0,0,0-1.242-2.806,13.118,13.118,0,0,0-4.545-1.962,15.94,15.94,0,0,1-4.823-2.029,4.792,4.792,0,0,1-2.163-4.073,4.775,4.775,0,0,1,2.009-3.977,8.244,8.244,0,0,1,5.137-1.53,8.505,8.505,0,0,1,3.793.82,6.219,6.219,0,0,1,2.594,2.285A6.014,6.014,0,0,1,711-208.3h-1.812a4.485,4.485,0,0,0-1.491-3.519,5.793,5.793,0,0,0-4.005-1.33,6.3,6.3,0,0,0-3.887,1.093,3.413,3.413,0,0,0-1.447,2.854,3.233,3.233,0,0,0,1.3,2.656,12.063,12.063,0,0,0,4.165,1.812,19.548,19.548,0,0,1,4.341,1.627,6.18,6.18,0,0,1,2.221,2.014,5.046,5.046,0,0,1,.745,2.768,4.822,4.822,0,0,1-2.009,4.043,8.544,8.544,0,0,1-5.3,1.524,10.366,10.366,0,0,1-4.129-.806,6.308,6.308,0,0,1-2.85-2.256,5.832,5.832,0,0,1-.971-3.325h1.8a4.265,4.265,0,0,0,1.681,3.56,7.1,7.1,0,0,0,4.472,1.3,6.623,6.623,0,0,0,3.99-1.1A3.438,3.438,0,0,0,709.315-198.294Z" fill="#fff"/>
        <path id="Trazado_341" data-name="Trazado 341" d="M714.489-213.478a1.175,1.175,0,0,1,.321-.836,1.145,1.145,0,0,1,.877-.343,1.17,1.17,0,0,1,.884.343,1.157,1.157,0,0,1,.329.836,1.133,1.133,0,0,1-.329.83,1.18,1.18,0,0,1-.884.335,1.154,1.154,0,0,1-.877-.335A1.151,1.151,0,0,1,714.489-213.478Zm2.06,20.428h-1.754V-208.9h1.754Z" fill="#fff"/>
        <path id="Trazado_342" data-name="Trazado 342" d="M730.769-197.079a2.5,2.5,0,0,0-1.045-2.094,8.04,8.04,0,0,0-3.149-1.238,14.163,14.163,0,0,1-3.266-1.026,4.342,4.342,0,0,1-1.725-1.413,3.529,3.529,0,0,1-.563-2.022,3.773,3.773,0,0,1,1.564-3.1,6.307,6.307,0,0,1,4-1.223,6.492,6.492,0,0,1,4.246,1.311,4.211,4.211,0,0,1,1.6,3.421h-1.753a2.843,2.843,0,0,0-1.162-2.315,4.569,4.569,0,0,0-2.931-.923,4.569,4.569,0,0,0-2.769.769,2.375,2.375,0,0,0-1.045,2,2.162,2.162,0,0,0,.87,1.838,9.157,9.157,0,0,0,3.171,1.194,14.87,14.87,0,0,1,3.449,1.157,4.477,4.477,0,0,1,1.7,1.48,3.793,3.793,0,0,1,.555,2.094,3.8,3.8,0,0,1-1.615,3.209,6.891,6.891,0,0,1-4.216,1.2,7.071,7.071,0,0,1-4.48-1.341,4.128,4.128,0,0,1-1.717-3.391h1.754a3.048,3.048,0,0,0,1.293,2.4,5.274,5.274,0,0,0,3.15.857,4.96,4.96,0,0,0,2.952-.805A2.421,2.421,0,0,0,730.769-197.079Z" fill="#fff"/>
        <path id="Trazado_343" data-name="Trazado 343" d="M739.173-212.958v4.058h3.274v1.436h-3.274v10.573a3.312,3.312,0,0,0,.475,1.965,1.838,1.838,0,0,0,1.586.645,10.936,10.936,0,0,0,1.417-.146l.074,1.423a5.724,5.724,0,0,1-1.871.247,3.112,3.112,0,0,1-2.616-1.048,4.935,4.935,0,0,1-.819-3.083v-10.576h-2.908V-208.9h2.908v-4.058Z" fill="#fff"/>
        <path id="Trazado_344" data-name="Trazado 344" d="M752.194-192.757a6.852,6.852,0,0,1-3.646-1,6.782,6.782,0,0,1-2.536-2.776,8.673,8.673,0,0,1-.906-3.992v-.63a9.339,9.339,0,0,1,.885-4.116,7.048,7.048,0,0,1,2.462-2.879,6.068,6.068,0,0,1,3.42-1.047,5.706,5.706,0,0,1,4.567,1.97,8.008,8.008,0,0,1,1.688,5.384v.981H746.846v.337a6.647,6.647,0,0,0,1.541,4.49,4.9,4.9,0,0,0,3.881,1.794,5.684,5.684,0,0,0,2.477-.513,5.49,5.49,0,0,0,1.951-1.64l1.1.835A6.377,6.377,0,0,1,752.194-192.757Zm-.321-14.942a4.37,4.37,0,0,0-3.325,1.45,6.711,6.711,0,0,0-1.644,3.9h9.485v-.19a5.823,5.823,0,0,0-1.3-3.721A4.026,4.026,0,0,0,751.873-207.7Z" fill="#fff"/>
        <path id="Trazado_345" data-name="Trazado 345" d="M763.126-208.9l.059,2.578a5.857,5.857,0,0,1,2.192-2.153,6,6,0,0,1,2.923-.718q3.741,0,4.75,3.076a5.951,5.951,0,0,1,2.265-2.278,6.266,6.266,0,0,1,3.127-.8q5.086,0,5.189,5.567v10.576h-1.754v-10.445a4.734,4.734,0,0,0-.914-3.149,3.711,3.711,0,0,0-2.93-1.025,4.648,4.648,0,0,0-3.186,1.223,4.329,4.329,0,0,0-1.447,2.907v10.489h-1.754v-10.576a4.343,4.343,0,0,0-.957-3.04,3.8,3.8,0,0,0-2.9-1,4.409,4.409,0,0,0-2.836.944,5.551,5.551,0,0,0-1.754,2.806v10.869h-1.753V-208.9Z" fill="#fff"/>
        <path id="Trazado_346" data-name="Trazado 346" d="M798.041-193.05a8.256,8.256,0,0,1-.336-2.212,6.112,6.112,0,0,1-2.346,1.853,7.179,7.179,0,0,1-3.018.652,5.3,5.3,0,0,1-3.691-1.275,4.155,4.155,0,0,1-1.41-3.222,4.248,4.248,0,0,1,1.922-3.663,9.223,9.223,0,0,1,5.357-1.347h3.171v-1.8a3.477,3.477,0,0,0-1.045-2.673,4.31,4.31,0,0,0-3.047-.974,4.761,4.761,0,0,0-3.026.937,2.787,2.787,0,0,0-1.2,2.256l-1.754-.015a4.081,4.081,0,0,1,1.754-3.274,6.747,6.747,0,0,1,4.312-1.384,6.15,6.15,0,0,1,4.172,1.326,4.763,4.763,0,0,1,1.571,3.7v7.5a9.334,9.334,0,0,0,.482,3.442v.176Zm-5.5-1.26a5.858,5.858,0,0,0,3.135-.85,4.993,4.993,0,0,0,2.01-2.27v-3.487h-3.128a7.827,7.827,0,0,0-4.092.96,2.881,2.881,0,0,0-1.476,2.556,2.838,2.838,0,0,0,.986,2.212A3.712,3.712,0,0,0,792.545-194.31Z" fill="#fff"/>
        <path id="Trazado_347" data-name="Trazado 347" d="M813.971-193.05h-1.8v-21.328h1.8Z" fill="#fff"/>
        <path id="Trazado_348" data-name="Trazado 348" d="M821-208.9l.059,2.71a6.287,6.287,0,0,1,2.221-2.234,5.761,5.761,0,0,1,2.938-.769A4.739,4.739,0,0,1,830-207.757a6.485,6.485,0,0,1,1.257,4.306v10.4h-1.739v-10.415a4.853,4.853,0,0,0-.9-3.164,3.517,3.517,0,0,0-2.828-1.04,4.415,4.415,0,0,0-2.872,1.018,5.966,5.966,0,0,0-1.849,2.746v10.855h-1.739V-208.9Z" fill="#fff"/>
        <path id="Trazado_349" data-name="Trazado 349" d="M838.494-212.958v4.058h3.274v1.436h-3.274v10.573a3.312,3.312,0,0,0,.475,1.965,1.839,1.839,0,0,0,1.586.645,10.953,10.953,0,0,0,1.417-.146l.073,1.423a5.716,5.716,0,0,1-1.871.247,3.111,3.111,0,0,1-2.615-1.048,4.935,4.935,0,0,1-.819-3.083v-10.576h-2.908V-208.9h2.908v-4.058Z" fill="#fff"/>
        <path id="Trazado_350" data-name="Trazado 350" d="M851.516-192.757a6.856,6.856,0,0,1-3.647-1,6.789,6.789,0,0,1-2.536-2.776,8.673,8.673,0,0,1-.905-3.992v-.63a9.338,9.338,0,0,1,.884-4.116,7.048,7.048,0,0,1,2.462-2.879,6.07,6.07,0,0,1,3.42-1.047,5.7,5.7,0,0,1,4.567,1.97,8,8,0,0,1,1.688,5.384v.981H846.167v.337a6.652,6.652,0,0,0,1.541,4.49,4.9,4.9,0,0,0,3.881,1.794,5.684,5.684,0,0,0,2.477-.513,5.483,5.483,0,0,0,1.951-1.64l1.1.835A6.376,6.376,0,0,1,851.516-192.757Zm-.322-14.942a4.372,4.372,0,0,0-3.325,1.45,6.711,6.711,0,0,0-1.644,3.9h9.485v-.19a5.828,5.828,0,0,0-1.3-3.721A4.03,4.03,0,0,0,851.194-207.7Z" fill="#fff"/>
        <path id="Trazado_351" data-name="Trazado 351" d="M860.153-201.122a9.56,9.56,0,0,1,1.644-5.9,5.3,5.3,0,0,1,4.465-2.175,5.5,5.5,0,0,1,4.91,2.578l.088-2.285H872.9v15.527a6.721,6.721,0,0,1-1.709,4.849,6.113,6.113,0,0,1-4.633,1.787,7.016,7.016,0,0,1-3.15-.74,6.118,6.118,0,0,1-2.36-1.97l.979-1.054a5.54,5.54,0,0,0,4.414,2.285,4.483,4.483,0,0,0,3.42-1.3,5.172,5.172,0,0,0,1.271-3.6V-195.1a5.649,5.649,0,0,1-4.9,2.344,5.267,5.267,0,0,1-4.413-2.2,9.585,9.585,0,0,1-1.666-5.932Zm1.768.308a8.278,8.278,0,0,0,1.213,4.783,3.92,3.92,0,0,0,3.42,1.75,4.674,4.674,0,0,0,4.574-2.9v-7.368a5,5,0,0,0-1.768-2.322,4.763,4.763,0,0,0-2.777-.8,3.969,3.969,0,0,0-3.435,1.735A8.855,8.855,0,0,0,861.921-200.814Z" fill="#fff"/>
        <path id="Trazado_352" data-name="Trazado 352" d="M884.764-207.406a6.551,6.551,0,0,0-1.184-.1,4.263,4.263,0,0,0-2.769.915,5.018,5.018,0,0,0-1.615,2.659v10.884h-1.739V-208.9h1.71l.029,2.52a4.649,4.649,0,0,1,4.457-2.813,2.872,2.872,0,0,1,1.155.191Z" fill="#fff"/>
        <path id="Trazado_353" data-name="Trazado 353" d="M896.923-193.05a8.341,8.341,0,0,1-.336-2.212,6.109,6.109,0,0,1-2.345,1.853,7.179,7.179,0,0,1-3.018.652,5.3,5.3,0,0,1-3.691-1.275,4.155,4.155,0,0,1-1.41-3.222,4.248,4.248,0,0,1,1.922-3.663,9.219,9.219,0,0,1,5.356-1.347h3.172v-1.8a3.477,3.477,0,0,0-1.045-2.673,4.313,4.313,0,0,0-3.048-.974,4.76,4.76,0,0,0-3.025.937,2.787,2.787,0,0,0-1.2,2.256l-1.754-.015a4.081,4.081,0,0,1,1.754-3.274,6.746,6.746,0,0,1,4.311-1.384,6.152,6.152,0,0,1,4.173,1.326,4.763,4.763,0,0,1,1.571,3.7v7.5a9.334,9.334,0,0,0,.482,3.442v.176Zm-5.495-1.26a5.858,5.858,0,0,0,3.135-.85,5,5,0,0,0,2.01-2.27v-3.487h-3.128a7.827,7.827,0,0,0-4.092.96,2.881,2.881,0,0,0-1.476,2.556,2.838,2.838,0,0,0,.986,2.212A3.712,3.712,0,0,0,891.428-194.31Z" fill="#fff"/>
        <path id="Trazado_354" data-name="Trazado 354" d="M904.932-193.05h-1.754v-22.5h1.754Z" fill="#fff"/>
        <path id="Trazado_355" data-name="Trazado 355" d="M916.259-201.122A9.569,9.569,0,0,1,917.9-207a5.287,5.287,0,0,1,4.465-2.19,5.5,5.5,0,0,1,4.881,2.534v-8.891h1.739v22.5h-1.637l-.073-2.11a5.642,5.642,0,0,1-4.94,2.4,5.267,5.267,0,0,1-4.406-2.205,9.617,9.617,0,0,1-1.673-5.955Zm1.768.308a8.278,8.278,0,0,0,1.213,4.783,3.919,3.919,0,0,0,3.42,1.75,4.706,4.706,0,0,0,4.589-2.856v-7.442a4.672,4.672,0,0,0-4.56-3.09,3.969,3.969,0,0,0-3.435,1.735A8.854,8.854,0,0,0,918.027-200.814Z" fill="#fff"/>
        <path id="Trazado_356" data-name="Trazado 356" d="M939.715-192.757a6.858,6.858,0,0,1-3.647-1,6.786,6.786,0,0,1-2.535-2.776,8.673,8.673,0,0,1-.906-3.992v-.63a9.339,9.339,0,0,1,.884-4.116,7.051,7.051,0,0,1,2.463-2.879,6.066,6.066,0,0,1,3.42-1.047,5.7,5.7,0,0,1,4.566,1.97,8,8,0,0,1,1.688,5.384v.981H934.366v.337a6.647,6.647,0,0,0,1.542,4.49,4.9,4.9,0,0,0,3.88,1.794,5.684,5.684,0,0,0,2.477-.513,5.482,5.482,0,0,0,1.951-1.64l1.1.835A6.376,6.376,0,0,1,939.715-192.757Zm-.321-14.942a4.373,4.373,0,0,0-3.326,1.45,6.711,6.711,0,0,0-1.644,3.9h9.485v-.19a5.828,5.828,0,0,0-1.3-3.721A4.029,4.029,0,0,0,939.394-207.7Z" fill="#fff"/>
        <path id="Trazado_357" data-name="Trazado 357" d="M958.539-201.737v8.687h-1.8v-21.328h7.248a7.63,7.63,0,0,1,5.24,1.7,5.916,5.916,0,0,1,1.922,4.673,5.861,5.861,0,0,1-1.849,4.636,7.848,7.848,0,0,1-5.356,1.633Zm0-1.523h5.45a5.746,5.746,0,0,0,3.99-1.247,4.455,4.455,0,0,0,1.375-3.477,4.671,4.671,0,0,0-1.367-3.529,5.479,5.479,0,0,0-3.881-1.342h-5.567Z" fill="#fff"/>
        <path id="Trazado_358" data-name="Trazado 358" d="M980.884-192.757a6.856,6.856,0,0,1-3.647-1,6.786,6.786,0,0,1-2.535-2.776,8.673,8.673,0,0,1-.906-3.992v-.63a9.353,9.353,0,0,1,.884-4.116,7.051,7.051,0,0,1,2.463-2.879,6.063,6.063,0,0,1,3.419-1.047,5.708,5.708,0,0,1,4.568,1.97,8.007,8.007,0,0,1,1.687,5.384v.981H975.535v.337a6.647,6.647,0,0,0,1.542,4.49,4.9,4.9,0,0,0,3.88,1.794,5.689,5.689,0,0,0,2.478-.513,5.488,5.488,0,0,0,1.95-1.64l1.1.835A6.376,6.376,0,0,1,980.884-192.757Zm-.322-14.942a4.372,4.372,0,0,0-3.325,1.45,6.7,6.7,0,0,0-1.643,3.9h9.484v-.19a5.823,5.823,0,0,0-1.3-3.721A4.025,4.025,0,0,0,980.562-207.7Z" fill="#fff"/>
        <path id="Trazado_359" data-name="Trazado 359" d="M997.53-207.406a6.541,6.541,0,0,0-1.183-.1,4.267,4.267,0,0,0-2.77.915,5.024,5.024,0,0,0-1.615,2.659v10.884h-1.738V-208.9h1.71l.028,2.52a4.651,4.651,0,0,1,4.458-2.813,2.864,2.864,0,0,1,1.154.191Z" fill="#fff"/>
        <path id="Trazado_360" data-name="Trazado 360" d="M1009.763-197.079a2.5,2.5,0,0,0-1.045-2.094,8.039,8.039,0,0,0-3.15-1.238,14.18,14.18,0,0,1-3.266-1.026,4.341,4.341,0,0,1-1.725-1.413,3.536,3.536,0,0,1-.562-2.022,3.774,3.774,0,0,1,1.564-3.1,6.307,6.307,0,0,1,4-1.223,6.492,6.492,0,0,1,4.246,1.311,4.211,4.211,0,0,1,1.6,3.421h-1.754a2.842,2.842,0,0,0-1.161-2.315,4.57,4.57,0,0,0-2.931-.923,4.574,4.574,0,0,0-2.77.769,2.377,2.377,0,0,0-1.044,2,2.162,2.162,0,0,0,.87,1.838,9.157,9.157,0,0,0,3.171,1.194,14.885,14.885,0,0,1,3.449,1.157,4.473,4.473,0,0,1,1.7,1.48,3.794,3.794,0,0,1,.556,2.094,3.8,3.8,0,0,1-1.616,3.209,6.888,6.888,0,0,1-4.215,1.2,7.071,7.071,0,0,1-4.48-1.341,4.128,4.128,0,0,1-1.717-3.391h1.753a3.051,3.051,0,0,0,1.294,2.4,5.274,5.274,0,0,0,3.15.857,4.965,4.965,0,0,0,2.952-.805A2.421,2.421,0,0,0,1009.763-197.079Z" fill="#fff"/>
        <path id="Trazado_361" data-name="Trazado 361" d="M1014.483-201.209a9.354,9.354,0,0,1,.884-4.117,6.763,6.763,0,0,1,2.5-2.849,6.718,6.718,0,0,1,3.661-1.018,6.5,6.5,0,0,1,5.116,2.219,8.568,8.568,0,0,1,1.958,5.882v.366a9.418,9.418,0,0,1-.884,4.138,6.614,6.614,0,0,1-2.492,2.835,6.82,6.82,0,0,1-3.668,1,6.5,6.5,0,0,1-5.108-2.22,8.545,8.545,0,0,1-1.966-5.881Zm1.754.483a7.2,7.2,0,0,0,1.469,4.665,4.706,4.706,0,0,0,3.851,1.824,4.7,4.7,0,0,0,3.837-1.824,7.444,7.444,0,0,0,1.468-4.812v-.336a8.07,8.07,0,0,0-.673-3.326,5.412,5.412,0,0,0-1.884-2.336,4.814,4.814,0,0,0-2.778-.828,4.669,4.669,0,0,0-3.814,1.839,7.45,7.45,0,0,0-1.476,4.812Z" fill="#fff"/>
        <path id="Trazado_362" data-name="Trazado 362" d="M1033.877-208.9l.059,2.71a6.277,6.277,0,0,1,2.22-2.234,5.761,5.761,0,0,1,2.938-.769,4.738,4.738,0,0,1,3.785,1.436,6.485,6.485,0,0,1,1.257,4.306v10.4h-1.74v-10.415a4.842,4.842,0,0,0-.9-3.164,3.516,3.516,0,0,0-2.828-1.04,4.415,4.415,0,0,0-2.871,1.018,5.967,5.967,0,0,0-1.85,2.746v10.855h-1.738V-208.9Z" fill="#fff"/>
        <path id="Trazado_363" data-name="Trazado 363" d="M1058.634-193.05a8.3,8.3,0,0,1-.336-2.212,6.105,6.105,0,0,1-2.346,1.853,7.18,7.18,0,0,1-3.018.652,5.29,5.29,0,0,1-3.69-1.275,4.155,4.155,0,0,1-1.41-3.222,4.247,4.247,0,0,1,1.921-3.663,9.221,9.221,0,0,1,5.356-1.347h3.172v-1.8a3.473,3.473,0,0,0-1.045-2.673,4.313,4.313,0,0,0-3.048-.974,4.759,4.759,0,0,0-3.024.937,2.785,2.785,0,0,0-1.2,2.256l-1.753-.015a4.08,4.08,0,0,1,1.753-3.274,6.748,6.748,0,0,1,4.311-1.384,6.15,6.15,0,0,1,4.173,1.326,4.762,4.762,0,0,1,1.571,3.7v7.5a9.308,9.308,0,0,0,.483,3.442v.176Zm-5.495-1.26a5.851,5.851,0,0,0,3.134-.85,4.993,4.993,0,0,0,2.01-2.27v-3.487h-3.128a7.827,7.827,0,0,0-4.092.96,2.88,2.88,0,0,0-1.476,2.556,2.836,2.836,0,0,0,.987,2.212A3.709,3.709,0,0,0,1053.139-194.31Z" fill="#fff"/>
        <path id="Trazado_364" data-name="Trazado 364" d="M1066.643-193.05h-1.754v-22.5h1.754Z" fill="#fff"/>
        <path id="Trazado_365" data-name="Trazado 365" d="M1090.566-199.042h-9.66l-2.192,5.992h-1.885l8.053-21.328h1.71l8.053,21.328h-1.872Zm-9.1-1.523H1090l-4.268-11.616Z" fill="#fff"/>
        <path id="Trazado_366" data-name="Trazado 366" d="M1103.209-194.237a4.61,4.61,0,0,0,3.062-1.033,3.635,3.635,0,0,0,1.336-2.673h1.681a4.974,4.974,0,0,1-.9,2.644,5.684,5.684,0,0,1-2.215,1.868,6.663,6.663,0,0,1-2.959.674,6.105,6.105,0,0,1-4.933-2.168,8.78,8.78,0,0,1-1.819-5.83v-.528a9.92,9.92,0,0,1,.818-4.145,6.314,6.314,0,0,1,2.346-2.783,6.457,6.457,0,0,1,3.573-.982,6.088,6.088,0,0,1,4.289,1.553,5.668,5.668,0,0,1,1.8,4.087h-1.681a4.318,4.318,0,0,0-1.336-3,4.325,4.325,0,0,0-3.077-1.143,4.357,4.357,0,0,0-3.675,1.714,7.762,7.762,0,0,0-1.308,4.805v.513a7.587,7.587,0,0,0,1.308,4.731A4.384,4.384,0,0,0,1103.209-194.237Z" fill="#fff"/>
        <path id="Trazado_367" data-name="Trazado 367" d="M1122.764-193.05a8.3,8.3,0,0,1-.336-2.212,6.113,6.113,0,0,1-2.346,1.853,7.181,7.181,0,0,1-3.019.652,5.288,5.288,0,0,1-3.689-1.275,4.155,4.155,0,0,1-1.41-3.222,4.247,4.247,0,0,1,1.921-3.663,9.221,9.221,0,0,1,5.356-1.347h3.172v-1.8a3.477,3.477,0,0,0-1.045-2.673,4.313,4.313,0,0,0-3.048-.974,4.759,4.759,0,0,0-3.024.937,2.785,2.785,0,0,0-1.2,2.256l-1.753-.015a4.08,4.08,0,0,1,1.753-3.274,6.748,6.748,0,0,1,4.311-1.384,6.15,6.15,0,0,1,4.173,1.326,4.762,4.762,0,0,1,1.571,3.7v7.5a9.308,9.308,0,0,0,.483,3.442v.176Zm-5.495-1.26a5.854,5.854,0,0,0,3.134-.85,4.993,4.993,0,0,0,2.01-2.27v-3.487h-3.128a7.827,7.827,0,0,0-4.092.96,2.88,2.88,0,0,0-1.476,2.556,2.836,2.836,0,0,0,.987,2.212A3.709,3.709,0,0,0,1117.269-194.31Z" fill="#fff"/>
        <path id="Trazado_368" data-name="Trazado 368" d="M1128.112-201.122a9.563,9.563,0,0,1,1.645-5.881,5.287,5.287,0,0,1,4.465-2.19,5.5,5.5,0,0,1,4.881,2.534v-8.891h1.739v22.5H1139.2l-.073-2.11a5.642,5.642,0,0,1-4.94,2.4,5.267,5.267,0,0,1-4.406-2.205,9.618,9.618,0,0,1-1.674-5.955Zm1.769.308a8.278,8.278,0,0,0,1.213,4.783,3.92,3.92,0,0,0,3.42,1.75,4.707,4.707,0,0,0,4.589-2.856v-7.442a4.673,4.673,0,0,0-4.56-3.09,3.968,3.968,0,0,0-3.435,1.735A8.855,8.855,0,0,0,1129.881-200.814Z" fill="#fff"/>
        <path id="Trazado_369" data-name="Trazado 369" d="M1151.568-192.757a6.855,6.855,0,0,1-3.646-1,6.78,6.78,0,0,1-2.535-2.776,8.661,8.661,0,0,1-.907-3.992v-.63a9.353,9.353,0,0,1,.884-4.116,7.05,7.05,0,0,1,2.463-2.879,6.068,6.068,0,0,1,3.42-1.047,5.706,5.706,0,0,1,4.567,1.97,8.008,8.008,0,0,1,1.688,5.384v.981H1146.22v.337a6.643,6.643,0,0,0,1.542,4.49,4.9,4.9,0,0,0,3.88,1.794,5.687,5.687,0,0,0,2.477-.513,5.48,5.48,0,0,0,1.95-1.64l1.1.835A6.377,6.377,0,0,1,1151.568-192.757Zm-.321-14.942a4.37,4.37,0,0,0-3.325,1.45,6.712,6.712,0,0,0-1.644,3.9h9.485v-.19a5.828,5.828,0,0,0-1.3-3.721A4.026,4.026,0,0,0,1151.247-207.7Zm1.943-7.851h2.12l-3.376,4.1-1.535-.007Z" fill="#fff"/>
        <path id="Trazado_370" data-name="Trazado 370" d="M1162.5-208.9l.059,2.578a5.85,5.85,0,0,1,2.192-2.153,5.994,5.994,0,0,1,2.923-.718q3.741,0,4.749,3.076a5.952,5.952,0,0,1,2.265-2.278,6.27,6.27,0,0,1,3.128-.8q5.086,0,5.188,5.567v10.576h-1.754v-10.445a4.729,4.729,0,0,0-.913-3.149,3.712,3.712,0,0,0-2.93-1.025,4.648,4.648,0,0,0-3.186,1.223,4.32,4.32,0,0,0-1.447,2.907v10.489h-1.754v-10.576a4.343,4.343,0,0,0-.958-3.04,3.8,3.8,0,0,0-2.9-1,4.408,4.408,0,0,0-2.835.944,5.537,5.537,0,0,0-1.754,2.806v10.869h-1.754V-208.9Z" fill="#fff"/>
        <path id="Trazado_371" data-name="Trazado 371" d="M1187.331-213.478a1.175,1.175,0,0,1,.321-.836,1.146,1.146,0,0,1,.877-.343,1.169,1.169,0,0,1,.884.343,1.156,1.156,0,0,1,.329.836,1.133,1.133,0,0,1-.329.83,1.179,1.179,0,0,1-.884.335,1.156,1.156,0,0,1-.877-.335A1.151,1.151,0,0,1,1187.331-213.478Zm2.061,20.428h-1.754V-208.9h1.754Z" fill="#fff"/>
        <path id="Trazado_372" data-name="Trazado 372" d="M1199.987-194.237a4.608,4.608,0,0,0,3.062-1.033,3.639,3.639,0,0,0,1.337-2.673h1.68a4.967,4.967,0,0,1-.905,2.644,5.684,5.684,0,0,1-2.215,1.868,6.663,6.663,0,0,1-2.959.674,6.1,6.1,0,0,1-4.932-2.168,8.78,8.78,0,0,1-1.82-5.83v-.528a9.922,9.922,0,0,1,.819-4.145,6.312,6.312,0,0,1,2.345-2.783,6.458,6.458,0,0,1,3.574-.982,6.089,6.089,0,0,1,4.289,1.553,5.667,5.667,0,0,1,1.8,4.087h-1.68a4.318,4.318,0,0,0-1.337-3,4.324,4.324,0,0,0-3.076-1.143,4.36,4.36,0,0,0-3.676,1.714,7.769,7.769,0,0,0-1.308,4.805v.513a7.594,7.594,0,0,0,1.308,4.731A4.384,4.384,0,0,0,1199.987-194.237Z" fill="#fff"/>
        <path id="Trazado_373" data-name="Trazado 373" d="M1208.595-201.209a9.354,9.354,0,0,1,.884-4.117,6.749,6.749,0,0,1,2.5-2.849,6.716,6.716,0,0,1,3.661-1.018,6.5,6.5,0,0,1,5.115,2.219,8.563,8.563,0,0,1,1.958,5.882v.366a9.418,9.418,0,0,1-.884,4.138,6.614,6.614,0,0,1-2.492,2.835,6.818,6.818,0,0,1-3.668,1,6.5,6.5,0,0,1-5.107-2.22,8.54,8.54,0,0,1-1.966-5.881Zm1.754.483a7.2,7.2,0,0,0,1.468,4.665,4.706,4.706,0,0,0,3.851,1.824,4.694,4.694,0,0,0,3.837-1.824,7.444,7.444,0,0,0,1.469-4.812v-.336a8.086,8.086,0,0,0-.673-3.326,5.407,5.407,0,0,0-1.885-2.336,4.81,4.81,0,0,0-2.777-.828,4.671,4.671,0,0,0-3.815,1.839,7.45,7.45,0,0,0-1.475,4.812Z" fill="#fff"/>
      </g>
    </g>
    <line id="Línea_1" data-name="Línea 1" x2="529.459" transform="translate(694.583 -232.077)" fill="none" stroke="#fff" stroke-width="0.957"/>
  </g>
</svg>
